<svg width="1042" height="233" viewBox="0 0 1042 233" fill="none" xmlns="http://www.w3.org/2000/svg">
<path fill-rule="evenodd" clip-rule="evenodd" d="M0.476562 156.295V189.818H111.499V233H151.727V189.818H181.499V155.159H151.727V0.272705H99.2266L0.476562 156.295ZM111.954 48H110.136L43.6584 153.341V155.159H111.954V48Z" fill="#FF983F"/>
<path fill-rule="evenodd" clip-rule="evenodd" d="M860.477 156.295V189.818H971.499V233H1011.73V189.818H1041.5V155.159H1011.73V0.272705H959.227L860.477 156.295ZM971.954 48H970.136L903.658 153.341V155.159H971.954V48Z" fill="#FF983F"/>
<path fill-rule="evenodd" clip-rule="evenodd" d="M237.999 6C220.326 6 205.999 20.3269 205.999 38V196C205.999 213.673 220.326 228 237.999 228H803.999C821.672 228 835.999 213.673 835.999 196V38C835.999 20.3269 821.672 6 803.999 6H237.999ZM767.947 46C785.621 46 799.948 60.3269 799.948 78V156C799.948 173.673 785.621 188 767.948 188H274.051C256.377 188 242.051 173.673 242.051 156V78C242.051 60.3269 256.377 46 274.051 46H767.947Z" fill="#FF983F"/>
</svg>
