<svg width="100" height="33" viewBox="0 0 100 33" fill="none" xmlns="http://www.w3.org/2000/svg">
<g id="Group 1">
<path id="Subtract" d="M3.63387 1.51509e-06C3.63387 1.51509e-06 3.63387 1.51509e-06 0 0V25.8649C0 29.8055 3.25388 33 7.26775 33H33.6133V29.4324H7.26775C5.26081 29.4324 3.63387 27.8352 3.63387 25.8649V1.51509e-06Z" fill="#272727"/>
<g id="Union">
<path d="M66.3858 3.56756H33.6128V0H66.3858V3.56756Z" fill="#FF983F"/>
<path d="M66.3858 18.7297H33.6128V15.1622H66.3858V18.7297Z" fill="#FF983F"/>
<path d="M33.6128 33H66.3858V29.4324H33.6128V33Z" fill="#FF983F"/>
</g>
<path id="Subtract_2" d="M66.3867 33H92.7323C96.7462 33 100 29.8055 100 25.8649V7.13514C100 3.19451 96.7462 0 92.7323 0H66.3867V3.56757H92.7323C94.7392 3.56757 96.3662 5.16482 96.3662 7.13514V25.8649C96.3662 27.8352 94.7392 29.4324 92.7323 29.4324H66.3867V33Z" fill="#272727"/>
</g>
</svg>
